<svg display="none" xmlns="http://www.w3.org/2000/svg">
    <symbol id="facebook" viewBox="0 0 512 512">
        <g>
            <path d="M448,0H64C28.704,0,0,28.704,0,64v384c0,35.296,28.704,64,64,64h192V336h-64v-80h64v-64c0-53.024,42.976-96,96-96h64v80
                h-32c-17.664,0-32-1.664-32,16v64h80l-32,80h-48v176h96c35.296,0,64-28.704,64-64V64C512,28.704,483.296,0,448,0z"/>
        </g>
    </symbol>

    <symbol id="instagram" viewBox="0 0 512 512">
        <g>
            <path d="m261.039062 512c-1.695312 0-3.390624 0-5.097656-.007812-40.132812.097656-77.214844-.921876-113.277344-3.117188-33.0625-2.011719-63.242187-13.4375-87.28125-33.039062-23.195312-18.914063-39.035156-44.488282-47.078124-76.003907-7-27.4375-7.371094-54.371093-7.726563-80.421875-.257813-18.691406-.5234375-40.839844-.578125-63.363281.0546875-22.617187.320312-44.765625.578125-63.457031.355469-26.046875.726563-52.980469 7.726563-80.421875 8.042968-31.515625 23.882812-57.089844 47.078124-76.003907 24.039063-19.601562 54.21875-31.027343 87.285157-33.039062 36.0625-2.191406 73.152343-3.2148438 113.371093-3.1171875 40.144532-.0859375 77.214844.9257815 113.277344 3.1171875 33.0625 2.011719 63.242188 13.4375 87.28125 33.039062 23.199219 18.914063 39.035156 44.488282 47.078125 76.003907 7 27.4375 7.371094 54.375 7.726563 80.421875.257812 18.691406.527344 40.839844.578125 63.363281v.09375c-.050781 22.523437-.320313 44.671875-.578125 63.363281-.355469 26.046875-.722656 52.980469-7.726563 80.421875-8.042969 31.515625-23.878906 57.089844-47.078125 76.003907-24.039062 19.601562-54.21875 31.027343-87.28125 33.039062-34.535156 2.101562-70.011718 3.125-108.277344 3.125zm-5.097656-40.007812c39.480469.09375 75.730469-.902344 110.945313-3.042969 25-1.519531 46.675781-9.632813 64.433593-24.113281 16.414063-13.386719 27.71875-31.855469 33.597657-54.894532 5.828125-22.839844 6.164062-47.363281 6.488281-71.078125.253906-18.566406.519531-40.558593.574219-62.863281-.054688-22.308594-.320313-44.296875-.574219-62.863281-.324219-23.714844-.660156-48.238281-6.488281-71.082031-5.878907-23.039063-17.183594-41.507813-33.597657-54.894532-17.757812-14.476562-39.433593-22.589844-64.433593-24.109375-35.214844-2.144531-71.464844-3.132812-110.851563-3.046875-39.472656-.09375-75.726562.902344-110.941406 3.046875-25 1.519531-46.675781 9.632813-64.433594 24.109375-16.414062 13.386719-27.71875 31.855469-33.597656 54.894532-5.828125 22.84375-6.164062 47.363281-6.488281 71.082031-.253907 18.582031-.519531 40.585937-.574219 62.910156.054688 22.226563.320312 44.234375.574219 62.816406.324219 23.714844.660156 48.238281 6.488281 71.078125 5.878906 23.039063 17.183594 41.507813 33.597656 54.894532 17.757813 14.476562 39.433594 22.589843 64.433594 24.109374 35.214844 2.144532 71.476562 3.144532 110.847656 3.046876zm-.953125-90.992188c-68.921875 0-125-56.074219-125-125s56.078125-125 125-125c68.925781 0 125 56.074219 125 125s-56.074219 125-125 125zm0-210c-46.867187 0-85 38.132812-85 85s38.132813 85 85 85c46.871094 0 85-38.132812 85-85s-38.128906-85-85-85zm139-80c-16.566406 0-30 13.429688-30 30s13.433594 30 30 30c16.570313 0 30-13.429688 30-30s-13.429687-30-30-30zm0 0"/>
        </g>
    </symbol>

    <symbol id="linkedin" viewBox="0 0 512 512">
        <g>
            <path d="m160.007812 423h-70v-226h70zm6.984376-298.003906c0-22.628906-18.359376-40.996094-40.976563-40.996094-22.703125 0-41.015625 18.367188-41.015625 40.996094 0 22.636718 18.3125 41.003906 41.015625 41.003906 22.617187 0 40.976563-18.367188 40.976563-41.003906zm255.007812 173.667968c0-60.667968-12.816406-105.664062-83.6875-105.664062-34.054688 0-56.914062 17.03125-66.246094 34.742188h-.066406v-30.742188h-68v226h68v-112.210938c0-29.386718 7.480469-57.855468 43.90625-57.855468 35.929688 0 37.09375 33.605468 37.09375 59.722656v110.34375h69zm90 153.335938v-392c0-33.085938-26.914062-60-60-60h-392c-33.085938 0-60 26.914062-60 60v392c0 33.085938 26.914062 60 60 60h392c33.085938 0 60-26.914062 60-60zm-60-412c11.027344 0 20 8.972656 20 20v392c0 11.027344-8.972656 20-20 20h-392c-11.027344 0-20-8.972656-20-20v-392c0-11.027344 8.972656-20 20-20zm0 0"/>
        </g>
    </symbol>

    <symbol id="pinterest" viewBox="0 0 511.977 511.977">
        <g>
		    <path d="M262.948,0C122.628,0,48.004,89.92,48.004,187.968c0,45.472,25.408,102.176,66.08,120.16
			c6.176,2.784,9.536,1.6,10.912-4.128c1.216-4.352,6.56-25.312,9.152-35.2c0.8-3.168,0.384-5.92-2.176-8.896
			c-13.504-15.616-24.224-44.064-24.224-70.752c0-68.384,54.368-134.784,146.88-134.784c80,0,135.968,51.968,135.968,126.304
			c0,84-44.448,142.112-102.208,142.112c-31.968,0-55.776-25.088-48.224-56.128c9.12-36.96,27.008-76.704,27.008-103.36
			c0-23.904-13.504-43.68-41.088-43.68c-32.544,0-58.944,32.224-58.944,75.488c0,27.488,9.728,46.048,9.728,46.048
			S144.676,371.2,138.692,395.488c-10.112,41.12,1.376,107.712,2.368,113.44c0.608,3.168,4.16,4.16,6.144,1.568
			c3.168-4.16,42.08-59.68,52.992-99.808c3.968-14.624,20.256-73.92,20.256-73.92c10.72,19.36,41.664,35.584,74.624,35.584
			c98.048,0,168.896-86.176,168.896-193.12C463.62,76.704,375.876,0,262.948,0z"/>
	    </g>
    </symbol>
    <symbol id="arrow" viewBox="0 0 492.002 492.002">
        <g>
            <path d="M484.136,328.473L264.988,109.329c-5.064-5.064-11.816-7.844-19.172-7.844c-7.208,0-13.964,2.78-19.02,7.844
                L7.852,328.265C2.788,333.333,0,340.089,0,347.297c0,7.208,2.784,13.968,7.852,19.032l16.124,16.124
                c5.064,5.064,11.824,7.86,19.032,7.86s13.964-2.796,19.032-7.86l183.852-183.852l184.056,184.064
                c5.064,5.06,11.82,7.852,19.032,7.852c7.208,0,13.96-2.792,19.028-7.852l16.128-16.132
                C494.624,356.041,494.624,338.965,484.136,328.473z"/>
        </g>
    </symbol>
    <symbol id="moon" viewBox="0 0 312.999 312.999">
        <g>
		    <path d="M305.6,178.053c-3.2-0.8-6.4,0-9.2,2c-10.4,8.8-22.4,16-35.6,20.8c-12.4,4.8-26,7.2-40.4,7.2c-32.4,0-62-13.2-83.2-34.4
			    c-21.2-21.2-34.4-50.8-34.4-83.2c0-13.6,2.4-26.8,6.4-38.8c4.4-12.8,10.8-24.4,19.2-34.4c3.6-4.4,2.8-10.8-1.6-14.4
			    c-2.8-2-6-2.8-9.2-2c-34,9.2-63.6,29.6-84.8,56.8c-20.4,26.8-32.8,60-32.8,96.4c0,43.6,17.6,83.2,46.4,112s68.4,46.4,112,46.4
			    c36.8,0,70.8-12.8,98-34c27.6-21.6,47.6-52.4,56-87.6C314.4,184.853,311.2,179.253,305.6,178.053z M244.4,261.653
			    c-23.2,18.4-52.8,29.6-85.2,29.6c-38,0-72.4-15.6-97.2-40.4c-24.8-24.8-40.4-59.2-40.4-97.2c0-31.6,10.4-60.4,28.4-83.6
			    c12.4-16,28-29.2,46-38.4c-2,4.4-4,8.8-5.6,13.6c-5.2,14.4-7.6,29.6-7.6,45.6c0,38,15.6,72.8,40.4,97.6s59.6,40.4,97.6,40.4
			    c16.8,0,32.8-2.8,47.6-8.4c5.2-2,10.4-4,15.2-6.4C274,232.453,260.8,248.853,244.4,261.653z"/>
	    </g>
    </symbol>
    <symbol id="sun" viewBox="0 0 302.4 302.4">
        <g>
	        <g>
		        <path d="M204.8,97.6C191.2,84,172,75.2,151.2,75.2s-40,8.4-53.6,22.4c-13.6,13.6-22.4,32.8-22.4,53.6s8.8,40,22.4,53.6
		        	c13.6,13.6,32.8,22.4,53.6,22.4s40-8.4,53.6-22.4c13.6-13.6,22.4-32.8,22.4-53.6S218.8,111.2,204.8,97.6z M190.4,190.4
		        	c-10,10-24,16-39.2,16s-29.2-6-39.2-16s-16-24-16-39.2s6-29.2,16-39.2s24-16,39.2-16s29.2,6,39.2,16s16,24,16,39.2
		        	S200.4,180.4,190.4,190.4z"/>
	        </g>
        </g>
        <g>
        	<g>
        		<path d="M292,140.8h-30.8c-5.6,0-10.4,4.8-10.4,10.4c0,5.6,4.8,10.4,10.4,10.4H292c5.6,0,10.4-4.8,10.4-10.4
        			C302.4,145.6,297.6,140.8,292,140.8z"/>
        	</g>
        </g>
        <g>
        	<g>
        		<path d="M151.2,250.8c-5.6,0-10.4,4.8-10.4,10.4V292c0,5.6,4.8,10.4,10.4,10.4c5.6,0,10.4-4.8,10.4-10.4v-30.8
        			C161.6,255.6,156.8,250.8,151.2,250.8z"/>
        	</g>
        </g>
        <g>
        	<g>
        		<path d="M258,243.6l-22-22c-3.6-4-10.4-4-14.4,0s-4,10.4,0,14.4l22,22c4,4,10.4,4,14.4,0S262,247.6,258,243.6z"/>
        	</g>
        </g>
        <g>
        	<g>
        		<path d="M151.2,0c-5.6,0-10.4,4.8-10.4,10.4v30.8c0,5.6,4.8,10.4,10.4,10.4c5.6,0,10.4-4.8,10.4-10.4V10.4
        			C161.6,4.8,156.8,0,151.2,0z"/>
        	</g>
        </g>
        <g>
        	<g>
        		<path d="M258.4,44.4c-4-4-10.4-4-14.4,0l-22,22c-4,4-4,10.4,0,14.4c3.6,4,10.4,4,14.4,0l22-22C262.4,54.8,262.4,48.4,258.4,44.4z"
        			/>
        	</g>
        </g>
        <g>
        	<g>
        		<path d="M41.2,140.8H10.4c-5.6,0-10.4,4.8-10.4,10.4s4.4,10.4,10.4,10.4h30.8c5.6,0,10.4-4.8,10.4-10.4
        			C51.6,145.6,46.8,140.8,41.2,140.8z"/>
        	</g>
        </g>
        <g>
        	<g>
        		<path d="M80.4,221.6c-3.6-4-10.4-4-14.4,0l-22,22c-4,4-4,10.4,0,14.4s10.4,4,14.4,0l22-22C84.4,232,84.4,225.6,80.4,221.6z"/>
        	</g>
        </g>
        <g>
        	<g>
        		<path d="M80.4,66.4l-22-22c-4-4-10.4-4-14.4,0s-4,10.4,0,14.4l22,22c4,4,10.4,4,14.4,0S84.4,70.4,80.4,66.4z"/>
        	</g>
        </g>
    </symbol>
	<symbol id="stop" viewBox="0 0 419.84 419.84">
        <g>
			<path d="M209.92,0C93.696,0,0,93.696,0,209.92s93.696,209.92,209.92,209.92s209.92-93.696,209.92-209.92S326.144,0,209.92,0z
				M292.352,268.288c0,12.8-10.24,23.552-23.552,23.552H151.552c-12.8,0-23.552-10.24-23.552-23.552l0.512-116.736
				c0-12.8,10.24-23.552,23.552-23.552H268.8c12.8,0,23.552,10.24,23.552,23.552V268.288z"/>
		</g>
    </symbol>
	<symbol id="smoke" viewBox="0 0 512 512">
        <g>
			<path d="m506.829 243.122c-.078-.322-.167-.642-.266-.958-24.635-78.552-76.584-92.41-118.327-103.545-48.466-12.93-80.485-21.471-70.23-122.098.626-6.146-2.581-12.049-8.079-14.868-5.498-2.821-12.163-1.979-16.789 2.118-20.786 18.407-36.114 41.639-44.327 67.182-7.971 24.788-8.997 50.71-2.967 74.963 11.68 46.978 47.395 80.941 97.989 93.185.428.104.86.188 1.295.254 60.028 9.035 99.758 59.118 109.003 137.405.726 6.146 5.15 11.215 11.142 12.764 5.894 1.547 12.321-.714 15.932-5.763 28.375-39.446 37.715-90.707 25.624-140.639zm-31.604 86.616c-7.407-25.483-18.47-47.873-32.762-66.042-23.22-29.522-55.083-48.15-92.183-53.902-39.039-9.646-66.477-35.537-75.322-71.115-6.642-26.716-2.255-54.909 11.442-79.5 1.291 31.727 8.808 55.107 22.888 72.022 18.625 22.375 45.361 29.507 71.216 36.404 39.876 10.637 77.547 20.69 97.284 83.059 6.449 27.004 5.415 54.361-2.563 79.074z"/><path d="m207.35 256.004c-45.184-23.996-75.865-43.866-89.19-68.739-12.235-22.839-12.521-52.882-1.02-107.155 1.181-5.575-.899-11.339-5.369-14.874-4.471-3.537-10.558-4.234-15.711-1.799-27.852 13.155-51.762 34.074-69.145 60.495-17.145 26.059-26.447 55.074-26.899 83.909-.372 23.726 5.56 46.58 17.152 66.093 12.714 21.4 31.809 38.718 56.753 51.47 11.075 5.661 23.067 10.896 34.664 15.959 30.062 13.124 61.147 26.694 79.801 48.892 20.52 24.419 24.017 57.03 11.006 102.63-1.676 5.874.377 12.177 5.19 15.938 4.825 3.769 11.442 4.218 16.719 1.178 50.843-29.274 79.521-74.233 78.68-123.35-.43-25.109-8.855-50.154-24.367-72.427-16.105-23.129-39.073-42.717-68.264-58.22zm28.723 206.006c3.834-36.822-4.361-66.83-24.719-91.056-23.176-27.58-57.537-42.58-90.766-57.086-11.7-5.107-22.751-9.933-33.012-15.178-37.731-19.288-58.175-51.386-57.564-90.38.588-37.562 20.778-75.536 51.604-100.535-5.249 36.409-4.102 67.148 10.099 93.656 16.989 31.712 50.104 53.738 101.563 81.068 48.047 25.518 76.006 63.665 76.708 104.663.47 27.453-11.591 53.552-33.913 74.848z"/><path d="m397 80h15v15c0 8.284 6.716 15 15 15s15-6.716 15-15v-15h15c8.284 0 15-6.716 15-15s-6.716-15-15-15h-15v-15c0-8.284-6.716-15-15-15s-15 6.716-15 15v15h-15c-8.284 0-15 6.716-15 15s6.716 15 15 15z"/><path d="m417 420h-15v-15c0-8.284-6.716-15-15-15s-15 6.716-15 15v15h-15c-8.284 0-15 6.716-15 15s6.716 15 15 15h15v15c0 8.284 6.716 15 15 15s15-6.716 15-15v-15h15c8.284 0 15-6.716 15-15s-6.716-15-15-15z"/><path d="m147 60h15v15c0 8.284 6.716 15 15 15s15-6.716 15-15v-15h15c8.284 0 15-6.716 15-15s-6.716-15-15-15h-15v-15c0-8.284-6.716-15-15-15s-15 6.716-15 15v15h-15c-8.284 0-15 6.716-15 15s6.716 15 15 15z"/>
		</g>
    </symbol>
	<symbol id="cancel" viewBox="0 0 512 512">
        <g>
			<g>
				<g>
					<path d="M257,0C117.104,0,0,113.029,0,255c0,140.742,116.009,257,257,257c142.13,0,255-117.257,255-257
						C512,114.061,397.951,0,257,0z M257,482.2C131.832,482.2,29.8,380.168,29.8,255C29.8,130.935,131.832,29.8,257,29.8
						c124.065,0,225.2,101.135,225.2,225.2C482.2,380.168,381.065,482.2,257,482.2z"/>
				</g>
			</g>
			<g>
				<g>
					<path d="M373.764,310.124l-53.286-54.961l53.195-53.196c17.546-17.546,17.546-46.094,0-63.639
						c-17.546-17.547-46.096-17.545-63.64,0l-53.196,53.196l-54.961-53.287c-17.553-17.456-46.033-17.425-63.549,0.091
						c-17.546,17.545-17.546,46.094,0,63.639l53.195,53.196l-53.286,54.961c-17.455,17.553-17.425,46.034,0.091,63.549
						c17.516,17.516,45.996,17.546,63.549,0.091l54.961-53.287l53.196,53.196c17.544,17.545,46.094,17.546,63.64,0
						C391.189,356.158,391.219,327.677,373.764,310.124z M352.46,352.46c-5.863,5.863-15.351,5.863-21.214,0l-63.64-63.64
						c-5.794-5.794-15.165-5.867-21.048-0.163l-65.64,63.64c-0.056,0.054-0.11,0.108-0.165,0.163c-5.863,5.863-15.351,5.863-21.214,0
						c-5.863-5.864-5.862-15.35,0-21.213c0.055-0.055,0.109-0.11,0.163-0.165l63.64-65.64c5.703-5.883,5.631-15.254-0.163-21.048
						l-63.64-63.64c-5.863-5.864-5.863-15.35,0-21.213c5.863-5.863,15.351-5.863,21.214,0c0.055,0.055,0.109,0.109,0.165,0.163
						l65.64,63.64c5.885,5.704,15.256,5.631,21.048-0.163l63.64-63.64c5.863-5.863,15.351-5.863,21.214,0
						c5.863,5.864,5.862,15.349,0,21.213l-63.64,63.64c-5.794,5.794-5.866,15.165-0.163,21.048l63.64,65.64
						c0.054,0.055,0.108,0.11,0.163,0.165C358.323,337.111,358.323,346.597,352.46,352.46z"/>
				</g>
			</g>
		</g>
    </symbol>
	<symbol id="cancel_futter" viewBox="0 0 47.095 47.095">
        <g>
			<g>
				<path d="M45.363,36.234l-13.158-13.16l12.21-12.21c2.31-2.307,2.31-6.049,0-8.358c-2.308-2.308-6.05-2.307-8.356,0l-12.212,12.21
					L11.038,1.906c-2.309-2.308-6.051-2.308-8.358,0c-2.307,2.309-2.307,6.049,0,8.358l12.81,12.81L1.732,36.831
					c-2.309,2.31-2.309,6.05,0,8.359c2.308,2.307,6.049,2.307,8.356,0l13.759-13.758l13.16,13.16c2.308,2.308,6.049,2.308,8.356,0
					C47.673,42.282,47.672,38.54,45.363,36.234z"/>
			</g>
		</g>		
    </symbol>
</svg>

