<svg display="none" xmlns="http://www.w3.org/2000/svg">
    <symbol id="facebook" viewBox="0 0 512 512">
        <g>
            <path d="M448,0H64C28.704,0,0,28.704,0,64v384c0,35.296,28.704,64,64,64h192V336h-64v-80h64v-64c0-53.024,42.976-96,96-96h64v80
                h-32c-17.664,0-32-1.664-32,16v64h80l-32,80h-48v176h96c35.296,0,64-28.704,64-64V64C512,28.704,483.296,0,448,0z"/>
        </g>
    </symbol>

    <symbol id="instagram" viewBox="0 0 512 512">
        <g>
            <path d="m261.039062 512c-1.695312 0-3.390624 0-5.097656-.007812-40.132812.097656-77.214844-.921876-113.277344-3.117188-33.0625-2.011719-63.242187-13.4375-87.28125-33.039062-23.195312-18.914063-39.035156-44.488282-47.078124-76.003907-7-27.4375-7.371094-54.371093-7.726563-80.421875-.257813-18.691406-.5234375-40.839844-.578125-63.363281.0546875-22.617187.320312-44.765625.578125-63.457031.355469-26.046875.726563-52.980469 7.726563-80.421875 8.042968-31.515625 23.882812-57.089844 47.078124-76.003907 24.039063-19.601562 54.21875-31.027343 87.285157-33.039062 36.0625-2.191406 73.152343-3.2148438 113.371093-3.1171875 40.144532-.0859375 77.214844.9257815 113.277344 3.1171875 33.0625 2.011719 63.242188 13.4375 87.28125 33.039062 23.199219 18.914063 39.035156 44.488282 47.078125 76.003907 7 27.4375 7.371094 54.375 7.726563 80.421875.257812 18.691406.527344 40.839844.578125 63.363281v.09375c-.050781 22.523437-.320313 44.671875-.578125 63.363281-.355469 26.046875-.722656 52.980469-7.726563 80.421875-8.042969 31.515625-23.878906 57.089844-47.078125 76.003907-24.039062 19.601562-54.21875 31.027343-87.28125 33.039062-34.535156 2.101562-70.011718 3.125-108.277344 3.125zm-5.097656-40.007812c39.480469.09375 75.730469-.902344 110.945313-3.042969 25-1.519531 46.675781-9.632813 64.433593-24.113281 16.414063-13.386719 27.71875-31.855469 33.597657-54.894532 5.828125-22.839844 6.164062-47.363281 6.488281-71.078125.253906-18.566406.519531-40.558593.574219-62.863281-.054688-22.308594-.320313-44.296875-.574219-62.863281-.324219-23.714844-.660156-48.238281-6.488281-71.082031-5.878907-23.039063-17.183594-41.507813-33.597657-54.894532-17.757812-14.476562-39.433593-22.589844-64.433593-24.109375-35.214844-2.144531-71.464844-3.132812-110.851563-3.046875-39.472656-.09375-75.726562.902344-110.941406 3.046875-25 1.519531-46.675781 9.632813-64.433594 24.109375-16.414062 13.386719-27.71875 31.855469-33.597656 54.894532-5.828125 22.84375-6.164062 47.363281-6.488281 71.082031-.253907 18.582031-.519531 40.585937-.574219 62.910156.054688 22.226563.320312 44.234375.574219 62.816406.324219 23.714844.660156 48.238281 6.488281 71.078125 5.878906 23.039063 17.183594 41.507813 33.597656 54.894532 17.757813 14.476562 39.433594 22.589843 64.433594 24.109374 35.214844 2.144532 71.476562 3.144532 110.847656 3.046876zm-.953125-90.992188c-68.921875 0-125-56.074219-125-125s56.078125-125 125-125c68.925781 0 125 56.074219 125 125s-56.074219 125-125 125zm0-210c-46.867187 0-85 38.132812-85 85s38.132813 85 85 85c46.871094 0 85-38.132812 85-85s-38.128906-85-85-85zm139-80c-16.566406 0-30 13.429688-30 30s13.433594 30 30 30c16.570313 0 30-13.429688 30-30s-13.429687-30-30-30zm0 0"/>
        </g>
    </symbol>

    <symbol id="linkedin" viewBox="0 0 512 512">
        <g>
            <path d="m160.007812 423h-70v-226h70zm6.984376-298.003906c0-22.628906-18.359376-40.996094-40.976563-40.996094-22.703125 0-41.015625 18.367188-41.015625 40.996094 0 22.636718 18.3125 41.003906 41.015625 41.003906 22.617187 0 40.976563-18.367188 40.976563-41.003906zm255.007812 173.667968c0-60.667968-12.816406-105.664062-83.6875-105.664062-34.054688 0-56.914062 17.03125-66.246094 34.742188h-.066406v-30.742188h-68v226h68v-112.210938c0-29.386718 7.480469-57.855468 43.90625-57.855468 35.929688 0 37.09375 33.605468 37.09375 59.722656v110.34375h69zm90 153.335938v-392c0-33.085938-26.914062-60-60-60h-392c-33.085938 0-60 26.914062-60 60v392c0 33.085938 26.914062 60 60 60h392c33.085938 0 60-26.914062 60-60zm-60-412c11.027344 0 20 8.972656 20 20v392c0 11.027344-8.972656 20-20 20h-392c-11.027344 0-20-8.972656-20-20v-392c0-11.027344 8.972656-20 20-20zm0 0"/>
        </g>
    </symbol>

    <symbol id="pinterest" viewBox="0 0 511.977 511.977">
        <g>
		    <path d="M262.948,0C122.628,0,48.004,89.92,48.004,187.968c0,45.472,25.408,102.176,66.08,120.16
			c6.176,2.784,9.536,1.6,10.912-4.128c1.216-4.352,6.56-25.312,9.152-35.2c0.8-3.168,0.384-5.92-2.176-8.896
			c-13.504-15.616-24.224-44.064-24.224-70.752c0-68.384,54.368-134.784,146.88-134.784c80,0,135.968,51.968,135.968,126.304
			c0,84-44.448,142.112-102.208,142.112c-31.968,0-55.776-25.088-48.224-56.128c9.12-36.96,27.008-76.704,27.008-103.36
			c0-23.904-13.504-43.68-41.088-43.68c-32.544,0-58.944,32.224-58.944,75.488c0,27.488,9.728,46.048,9.728,46.048
			S144.676,371.2,138.692,395.488c-10.112,41.12,1.376,107.712,2.368,113.44c0.608,3.168,4.16,4.16,6.144,1.568
			c3.168-4.16,42.08-59.68,52.992-99.808c3.968-14.624,20.256-73.92,20.256-73.92c10.72,19.36,41.664,35.584,74.624,35.584
			c98.048,0,168.896-86.176,168.896-193.12C463.62,76.704,375.876,0,262.948,0z"/>
	    </g>
    </symbol>
</svg>

